<svg width="35" height="36" xmlns="http://www.w3.org/2000/svg" xmlns:xlink="http://www.w3.org/1999/xlink" overflow="hidden"><defs><clipPath id="clip0"><rect x="644" y="478" width="35" height="36"/></clipPath></defs><g clip-path="url(#clip0)" transform="translate(-644 -478)"><path d="M27.125 26.724 20.5625 24.4635 20.526 24.4635 17.901 23.5521 30.1875 7.32813 27.125 26.724ZM18.9219 25.4844 16.5156 27.8906 17.1719 24.901 18.9219 25.4844 18.9219 25.4844ZM16.0052 23.625C15.9323 23.6979 15.8958 23.8073 15.8594 23.9167L15.75 24.3906 15.0208 27.7083 13.2708 22.6042 26.9063 9.47917 16.4427 23.0781 16.0052 23.625ZM5.46875 19.3229 26.8333 7.94792 12.2135 21.6198 5.46875 19.3229ZM31.7917 4.15625C31.5729 3.97396 31.2448 3.97396 30.9896 4.11979L3.31771 18.8125C3.0625 18.9583 2.91667 19.2135 2.91667 19.5052 2.91667 19.7969 3.13542 20.0521 3.39063 20.125L10.974 22.7135 11.9219 23.0417 12.1406 23.6615 14.401 30.4427 14.401 30.4792 14.401 30.5156C14.474 30.7344 14.6927 30.9167 14.9479 30.9896 15.2031 31.0625 15.4583 30.9896 15.6406 30.8073L15.6771 30.7708 15.8958 30.5521 20.4896 26.0313 27.4896 28.4375C27.7083 28.5104 27.9271 28.474 28.1094 28.3646 28.2917 28.2552 28.4375 28.0729 28.474 27.8542L32.1198 4.88542C32.1562 4.55729 32.0104 4.30208 31.7917 4.15625Z" transform="matrix(1 0 0 1.02857 644 478)"/></g></svg>